{
    "asset" : {
        "generator" : "Khronos glTF Blender I/O v0.9.36",
        "version" : "2.0"
    },
    "scene" : 0,
    "scenes" : [
        {
            "name" : "Scene",
            "nodes" : [
                0
            ]
        }
    ],
    "nodes" : [
        {
            "mesh" : 0,
            "name" : "Plane"
        }
    ],
    "materials" : [
        {
            "name" : "Material.002",
            "normalTexture" : {
                "index" : 0,
                "texCoord" : 0
            },
            "pbrMetallicRoughness" : {
                "baseColorTexture" : {
                    "index" : 1,
                    "texCoord" : 0
                },
                "metallicFactor" : 0,
                "metallicRoughnessTexture" : {
                    "index" : 2,
                    "texCoord" : 0
                }
            }
        }
    ],
    "meshes" : [
        {
            "name" : "Plane",
            "primitives" : [
                {
                    "attributes" : {
                        "POSITION" : 0,
                        "NORMAL" : 1,
                        "TEXCOORD_0" : 2
                    },
                    "indices" : 3,
                    "material" : 0
                }
            ]
        }
    ],
    "textures" : [
        {
            "source" : 0
        },
        {
            "source" : 1
        },
        {
            "source" : 2
        }
    ],
    "images" : [
        {
            "mimeType" : "image/png",
            "name" : "TexturesCom_Pavement_HerringboneNew_1K_normal.tif",
            "uri" : "TexturesCom_Pavement_HerringboneNew_1K_normal_tif.png"
        },
        {
            "mimeType" : "image/png",
            "name" : "TexturesCom_Pavement_HerringboneNew_1K_albedo.tif",
            "uri" : "TexturesCom_Pavement_HerringboneNew_1K_albedo_tif.png"
        },
        {
            "mimeType" : "image/png",
            "name" : "TexturesCom_Pavement_HerringboneNew_1K_roughness.tif",
            "uri" : "TexturesCom_Pavement_HerringboneNew_1K_roughness_tif.png"
        }
    ],
    "accessors" : [
        {
            "bufferView" : 0,
            "componentType" : 5126,
            "count" : 1430,
            "max" : [
                10,
                0,
                10
            ],
            "min" : [
                -10,
                0,
                -10
            ],
            "type" : "VEC3"
        },
        {
            "bufferView" : 1,
            "componentType" : 5126,
            "count" : 1430,
            "type" : "VEC3"
        },
        {
            "bufferView" : 2,
            "componentType" : 5126,
            "count" : 1430,
            "type" : "VEC2"
        },
        {
            "bufferView" : 3,
            "componentType" : 5123,
            "count" : 6534,
            "type" : "SCALAR"
        }
    ],
    "bufferViews" : [
        {
            "buffer" : 0,
            "byteLength" : 17160,
            "byteOffset" : 0
        },
        {
            "buffer" : 0,
            "byteLength" : 17160,
            "byteOffset" : 17160
        },
        {
            "buffer" : 0,
            "byteLength" : 11440,
            "byteOffset" : 34320
        },
        {
            "buffer" : 0,
            "byteLength" : 13068,
            "byteOffset" : 45760
        }
    ],
    "buffers" : [
        {
            "byteLength" : 58828,
            "uri" : "height-test.bin"
        }
    ]
}
